<svg xmlns="http://www.w3.org/2000/svg" width="500" height="500" style="width:100%;height:100%;content-visibility:visible"><defs><clipPath id="a"><path d="M0 0h500v500H0z"/></clipPath></defs><g clip-path="url(#a)"><g display="block"><path stroke-linecap="round" stroke-linejoin="round" stroke="#673467" stroke-width="12.04" d="M187.985 126.58s8.389 115.451 35.134 161.991m53.762 0c26.745-46.54 35.134-161.991 35.134-161.991m-62.015.001v162.2" fill="none"/><path stroke-linecap="round" stroke-linejoin="round" stroke="#41C6C6" stroke-width="12.04" d="M194.924 388.465c23.097 17.22 87.055 17.22 110.152 0m40.433-230.167H154.491" fill="none"/><path stroke-linecap="round" stroke-linejoin="round" stroke="#673467" stroke-width="12.04" d="M201.232 89.88h97.536c19.281 0 34.911 15.63 34.911 34.911v1.79H166.321v-1.79c0-19.281 15.63-34.911 34.911-34.911zm90.85 195.075l16.986 135.33c-19.674 22.027-98.462 22.027-118.136 0l16.986-135.33m19.931 3.826h44.302c30.784 0 57.163-25.863 62.67-61.443l13.313-86.018c1.191-7.699-4.113-14.739-11.104-14.739H162.97c-6.991 0-12.295 7.04-11.104 14.739l13.313 86.018c5.507 35.58 31.886 61.443 62.67 61.443z" fill="none"/></g></g></svg>